<svg width="256" height="256" viewBox="0 0 256 256" fill="none" xmlns="http://www.w3.org/2000/svg">
<path d="M213.691 222.66H42.0251C19.6266 222.66 1.40659 204.44 1.40659 182.042V73.6686C1.40659 51.2729 19.6294 33.05 42.0251 33.05H213.691C236.087 33.05 254.307 51.2729 254.307 73.6686V182.042C254.307 204.44 236.087 222.66 213.691 222.66ZM42.0251 44.9279C26.1767 44.9279 13.2845 57.8202 13.2845 73.6686V182.042C13.2845 197.89 26.1767 210.785 42.0251 210.785H213.691C229.539 210.785 242.432 197.89 242.432 182.042V73.6686C242.432 57.8202 229.539 44.9279 213.691 44.9279H42.0251Z" fill="#80B8C7"/>
<path d="M32.4402 74.2334C62.7995 103.817 93.1587 133.398 123.518 162.982C129.177 168.495 137.863 159.829 132.195 154.304C101.836 124.723 71.4767 95.1398 41.1175 65.5589C35.4582 60.0429 26.7725 68.7117 32.4402 74.2334Z" fill="#80B8C7"/>
<path d="M132.195 162.982C162.554 133.401 192.914 103.817 223.273 74.2363C228.938 68.7147 220.258 60.043 214.596 65.559C184.236 95.1399 153.877 124.724 123.518 154.304C117.853 159.826 126.533 168.498 132.195 162.982Z" fill="#80B8C7"/>
<path d="M222.939 183.922C202.737 164.763 182.534 145.608 162.332 126.449C156.603 121.017 147.912 129.678 153.655 135.126C173.856 154.285 194.06 173.441 214.261 192.599C219.991 198.031 228.682 189.368 222.939 183.922Z" fill="#80B8C7"/>
<path d="M41.9999 192.596C62.2009 173.438 82.4048 154.282 102.606 135.123C108.347 129.678 99.6611 121.012 93.9287 126.446C73.7276 145.605 53.5237 164.76 33.3226 183.919C27.5817 189.365 36.2675 198.034 41.9999 192.596Z" fill="#80B8C7"/>
</svg>
