<svg width="141" height="141" viewBox="0 0 141 141" fill="none" xmlns="http://www.w3.org/2000/svg">
<path d="M116.182 135H24.82C17.2005 135 11 130.608 11 125.21V72.7885C11 67.3908 17.2005 63 24.82 63H116.182C123.802 63 130 67.3925 130 72.7885V125.208C130 130.608 123.799 135 116.182 135ZM24.82 66.2743C19.7496 66.2743 15.6221 69.1966 15.6221 72.7885V125.208C15.6221 128.802 19.7496 131.724 24.82 131.724H116.182C121.253 131.724 125.378 128.802 125.378 125.208V72.7885C125.378 69.1966 121.253 66.2743 116.182 66.2743H24.82Z" fill="#AAAAAA"/>
<path d="M64.1789 104.408C63.6821 104.408 63.1997 104.151 62.934 103.69C62.5377 103.003 62.7732 102.125 63.4596 101.729L75.6242 94.7048C76.3092 94.3085 77.1879 94.5411 77.5856 95.2303C77.9819 95.9181 77.7465 96.7954 77.0601 97.1917L64.8954 104.216C64.67 104.347 64.423 104.408 64.1789 104.408Z" fill="#AAAAAA"/>
<path d="M70.2598 107.919C69.4672 107.919 68.824 107.277 68.824 106.483V92.4359C68.824 91.6418 69.4672 91 70.2598 91C71.0524 91 71.6957 91.6418 71.6957 92.4359V106.483C71.6957 107.277 71.0524 107.919 70.2598 107.919Z" fill="#AAAAAA"/>
<path d="M76.3407 104.408C76.0966 104.408 75.8497 104.346 75.6242 104.215L63.4596 97.1912C62.7718 96.7949 62.5377 95.9162 62.934 95.2298C63.3303 94.542 64.2062 94.3051 64.8954 94.7043L77.0601 101.729C77.7479 102.125 77.9834 103.004 77.5856 103.69C77.32 104.151 76.8375 104.408 76.3407 104.408Z" fill="#AAAAAA"/>
<path d="M86.9202 104.408C86.4234 104.408 85.941 104.151 85.6753 103.69C85.279 103.003 85.5145 102.125 86.2009 101.729L98.3655 94.7048C99.049 94.3085 99.9292 94.5411 100.327 95.2303C100.723 95.9181 100.488 96.7954 99.8014 97.1917L87.6367 104.216C87.4099 104.347 87.1629 104.408 86.9202 104.408Z" fill="#AAAAAA"/>
<path d="M93.0011 107.919C92.2071 107.919 91.5653 107.277 91.5653 106.483V92.4359C91.5653 91.6418 92.2071 91 93.0011 91C93.7952 91 94.437 91.6418 94.437 92.4359V106.483C94.437 107.277 93.7952 107.919 93.0011 107.919Z" fill="#AAAAAA"/>
<path d="M99.0806 104.408C98.8365 104.408 98.5895 104.346 98.3641 104.216L86.1994 97.1914C85.5117 96.7951 85.2762 95.9163 85.6739 95.23C86.0702 94.5408 86.9504 94.3067 87.6353 94.7044L99.8 101.729C100.488 102.125 100.723 103.004 100.326 103.69C100.06 104.151 99.5774 104.408 99.0806 104.408Z" fill="#AAAAAA"/>
<path d="M41.4377 104.408C40.9409 104.408 40.4584 104.151 40.1928 103.69C39.7965 103.002 40.032 102.125 40.7183 101.728L52.883 94.7041C53.5693 94.3064 54.4481 94.5419 54.8444 95.2297C55.2407 95.9174 55.0052 96.7948 54.3188 97.1911L42.1542 104.215C41.9287 104.346 41.6818 104.408 41.4377 104.408Z" fill="#AAAAAA"/>
<path d="M47.52 107.919C46.7274 107.919 46.0841 107.277 46.0841 106.483V92.4359C46.0841 91.6418 46.7274 91 47.52 91C48.3126 91 48.9559 91.6418 48.9559 92.4359V106.483C48.9559 107.277 48.3126 107.919 47.52 107.919Z" fill="#AAAAAA"/>
<path d="M53.5995 104.408C53.3568 104.408 53.1098 104.346 52.883 104.215L40.7183 97.1912C40.0305 96.7949 39.7964 95.9162 40.1927 95.2298C40.589 94.542 41.4635 94.3051 42.1541 94.7043L54.3188 101.729C55.0066 102.125 55.2406 103.004 54.8444 103.69C54.5787 104.151 54.0963 104.408 53.5995 104.408Z" fill="#AAAAAA"/>
<path d="M107.87 64C106.692 64 105.74 63.0899 105.74 61.9685V38.4331C105.74 22.2376 91.9265 9.06308 74.9498 9.06308H69.0502C52.0735 9.06308 38.2596 22.2376 38.2596 38.4331V61.9685C38.2596 63.0899 37.3055 64 36.1298 64C34.9542 64 34 63.0899 34 61.9685V38.4331C34 19.9968 49.7244 5 69.0502 5H74.9498C94.2756 5 110 19.9968 110 38.4331V61.9685C110 63.0899 109.048 64 107.87 64Z" fill="#AAAAAA"/>
</svg>
